<svg xmlns="http://www.w3.org/2000/svg" style="display:none;">
  <defs>
    <symbol id="feature-icon" viewBox="0 0 49.861 49.861">
      <path d="M38.83 41.75c.2.55-.52 1.15-1.02.8l-.8-.6-11.57-8.4-.44.32-11.94 8.67c-.5.36-1.2-.24-1.03-.8l.3-.93c1.48-4.5 2.95-9.04 4.42-13.56l-.33-.24L4.5 18.33c-.55-.4-.4-1.3.34-1.3h15.22l.14-.43 4.53-13.93c.02-.23.17-.4.36-.5.02 0 .04 0 .07-.02l.14-.04h.13c.05 0 .1 0 .15.02.03 0 .07 0 .1.02.04 0 .07.03.1.05.2.08.34.25.36.48l.27.84c1.48 4.5 2.94 9 4.4 13.5h15.22c.75 0 .9.92.36 1.3l-.8.6-11.46 8.32.16.5 4.55 14zM36.5 9.65l-1.3 3.97c-.1.28.27.58.52.4l3.38-2.46 3.38 2.46c.25.18.6-.12.52-.4l-1.3-3.96 3.34-2.4c.26-.2.2-.67-.18-.67h-4.14l-1.27-3.9v-.03l-.08-.13h-.02l-.07-.07c-.02 0-.04 0-.06-.02-.02 0-.04 0-.06-.02h-.14s-.03 0-.04.02c-.02 0-.05 0-.07.03l-.05.05h-.02l-.07.14v.04l-1.28 3.9h-4.14c-.37 0-.44.45-.18.65l3.33 2.4zM49.5 28.9h-4.14L44.12 25v-.03h-.02c0-.06-.03-.1-.07-.14l-.1-.07-.04-.02c-.03 0-.05 0-.07-.02h-.14c-.03 0-.04 0-.06.02-.02 0-.04 0-.06.03-.03 0-.05.03-.07.04v.03c-.04.04-.06.08-.07.12V25h-.02c-.4 1.3-.83 2.6-1.25 3.9H38c-.37 0-.44.46-.17.65l3.32 2.42-1.28 3.96c-.1.3.26.6.5.4 1.14-.8 2.27-1.63 3.4-2.45l3.38 2.45c.25.2.6-.1.5-.4l-1.27-3.95 3.32-2.42c.27-.2.2-.65-.18-.65zM31.2 40.28h-4.15l-1.27-3.88v-.03c-.02-.06-.05-.1-.08-.14-.04-.03-.06-.05-.1-.06l-.05-.03h-.05c-.02-.02-.05-.02-.07-.02h-.07c-.02 0-.04 0-.05.02l-.05.03c-.03 0-.05.03-.08.05-.04.05-.07.1-.08.14l-.02.02v.02l-1.27 3.9h-4.13c-.37 0-.44.44-.18.64l3.32 2.4-1.3 3.97c-.08.3.28.6.53.4 1.13-.8 2.25-1.63 3.38-2.45l3.38 2.46c.26.2.62-.1.53-.4l-1.3-3.95 3.34-2.4c.27-.2.2-.66-.18-.66zM12.02 29.54c.27-.2.2-.65-.17-.65H7.7c-.4-1.3-.83-2.6-1.25-3.88 0-.07-.04-.13-.08-.17l-.1-.07-.05-.03h-.05l-.07-.02-.07.02h-.06l-.05.04c-.03.02-.06.03-.08.06-.05.05-.1.1-.1.18l-1.26 3.88H.34c-.38 0-.45.46-.18.65 1.1.8 2.22 1.6 3.32 2.42L2.2 35.9c-.1.28.26.58.5.4l3.4-2.46 3.38 2.46c.25.18.6-.12.5-.4-.4-1.3-.84-2.63-1.27-3.95 1.12-.8 2.22-1.6 3.33-2.42zM10.55 9.66l-1.28 3.96c-.1.28.26.58.5.4l3.4-2.46 3.38 2.46c.25.18.6-.12.5-.4L15.8 9.66l3.32-2.4c.27-.2.2-.66-.18-.66h-4.14l-1.26-3.9c0-.02 0-.03-.02-.03 0-.05-.03-.1-.07-.13l-.08-.06-.06-.03h-.07c-.02-.02-.04-.02-.06-.02h-.08c-.03 0-.04 0-.05.02-.03 0-.05 0-.07.03-.03 0-.05.03-.07.05-.04.05-.06.1-.07.13v.03h-.02c-.4 1.3-.83 2.6-1.25 3.9H7.4c-.37 0-.44.45-.17.65l3.32 2.4z" fill="#933EC5"/>
    </symbol>
  </defs>

</svg>